<svg xmlns="http://www.w3.org/2000/svg" xmlns:xlink="http://www.w3.org/1999/xlink" id="Layer_1" x="0px" y="0px" viewBox="0 0 512 220.7" style="enable-background:new 0 0 512 220.7;" xml:space="preserve"><style type="text/css">	.st0{fill:#0082A0;}	.st1{fill:#FFCC1B;}</style><g>	<g>		<g>			<path class="st0" d="M275.5,18.4c-8,0.6-16.3,1.3-24.7,2.4c1.4-4.9,3-9.9,4.7-14.8c0.7-2-0.4-4.2-2.5-4.8l-22.6-1.1    c-1.9-0.5-3.9,0.5-4.5,2.5c-1.3,4.4-3.6,12.6-5.9,23.5c-17.6,4-35.1,9.8-51.7,18.8c-1.9,1.1-2.5,3.6-1.2,5.4    c3.6,5.2,10.4,13.1,13.7,17.9c1.1,1.6,3.1,2,4.8,1.1c4.6-2.5,14.6-7.2,29-12c-5.2,38-6.5,89,10.7,135.4c0.7,2,3.2,2.8,5.1,1.8    l21.4-10.7c1.7-0.8,2.5-2.8,1.8-4.6c-4.8-12.6-21.4-63.1-9.5-129.8c9.6-2,20.1-3.8,31.5-5c1.8-0.2,3.3-1.7,3.3-3.5l0.5-18.7    C279.5,20,277.7,18.2,275.5,18.4z"></path>		</g>		<g>			<path class="st0" d="M105.3,73.9c13.1-52-36.9-80.5-74.2-40.4c0.1-4.2,0.3-8.4,0.6-12.8c0.2-2.2-1.6-4.1-3.8-4.1H3.9    c-2.1,0-3.8,1.6-3.8,3.7C-0.4,41.5,0.2,150,52.4,216c1.4,1.7,4,1.9,5.6,0.4l18.6-16.6c1.5-1.3,1.7-3.5,0.6-5.1    c-4.5-6.2-15.7-22.9-26-48.3C62.5,139.7,94.4,117.3,105.3,73.9z M72.7,77.5c-5.3,21-19.7,32.8-27,37.6c-2.1,1.4-5,0.4-5.7-2.1    c-5-17.4-7.2-38.7-8-49.2c-0.4-4.5,1.4-9,5-11.8C56.3,36.3,79.2,51.4,72.7,77.5z"></path>		</g>		<g>			<path class="st0" d="M203.1,144.8c-1-1.8-2.3-2.5-4.8-2.8c-3.8-0.5-14.1-1.7-14.1-1.7c-1.5,0-3,0.6-4,1.8    c-3.2,3.6-14.8,15.2-27.4,15.2c0,0,0,0-0.1,0c-6.1,0-11.7-2.8-16.7-8.3c-0.4-0.5-0.6-1.1-0.4-1.7c0.1-0.6,0.5-1.1,1.1-1.3    c14.5-6.2,40.2-27,33.6-60.9c-1.5-7.8-6.4-14.2-13.4-17.7c-6.7-3.3-14.2-3.3-20.9,0c-13.1,6.5-29.3,20.6-32.4,50.9    c-2.8,27.2,11.6,51.9,34.9,60.1c5.1,1.8,10.1,2.6,15.2,2.6c18.2,0,37.4-12.1,49.2-30.4C204,148.8,204.1,146.6,203.1,144.8z     M134,120.3c-1.5-0.1-2.8-1.1-3.3-2.5c-0.9-2.5-1.8-7.6,0.4-16c2.1-8.4,11.9-22.9,19.4-15.7c7.6,7.2,5.3,20.1-2.5,27.6    C141.7,119.7,136.7,120.5,134,120.3z"></path>		</g>		<g>			<path class="st0" d="M299.3,91.2l-20.9-3c-2-0.3-3.8,1-4.2,3c-4.5,26-6.6,55.2-2.7,84.5c0.3,2,2.1,3.4,4,3.2l23.3-2.2    c2.1-0.2,3.6-2.1,3.3-4.2c-2.6-16.3-4.8-43.6,0.1-77C302.6,93.4,301.3,91.5,299.3,91.2z"></path>		</g>		<g>			<g>				<path class="st0" d="M281.5,55.5c-1.1,5-2,10.1-2.7,15.3c-0.3,1.8,1,3.5,2.8,3.8l21.2,3.8c1.9,0.4,3.7-1,4-2.9     c0.5-4.2,1.2-9.1,2.2-14.7c0.4-1.9-0.8-3.6-2.7-4l-20.8-3.8C283.6,52.5,281.9,53.7,281.5,55.5z"></path>			</g>		</g>		<g>			<path class="st0" d="M427.9,173.5c-12-11.5-46.9-46.7-56.4-75.9c-0.1-0.4-0.4-0.8-0.6-1.1c17.1-12.8,32.1-35.3,37.4-43.8    c1.2-1.8,0.4-4.2-1.5-5.2l-20.6-10.4c-1.8-0.9-3.9-0.2-4.9,1.6c-12.2,22-22,35-26.2,40.1c2.2-18,5.1-37.2,8.8-55.5    c0.4-2-0.9-4-2.9-4.3L339,14.6c-1.7-0.3-3.5,0.6-4.1,2.3c-3.8,10.1-11.7,53.8-16.5,133.2c-0.1,1.9,1.4,3.5,3.2,3.7l22.9,3    c2.1,0.3,4-1.3,4.1-3.5c0.3-6.4,1.1-20,2.5-37.5c7.8,21,25.3,62.6,45.6,74.6c1,0.6,2.2,0.6,3.3,0.2l26.6-11.1    C429.2,178.5,429.8,175.4,427.9,173.5z"></path>		</g>		<g>			<path class="st0" d="M503.2,104.5c-5.7-31.2-29.9-52.9-54-48.5c-24.2,4.4-39.2,33.2-33.6,64.4s29.9,52.9,54,48.5    C493.9,164.5,508.9,135.7,503.2,104.5z M463.5,132.6c-11.6,2.1-23.2-9-26.1-24.7s4.2-30.2,15.7-32.3c11.6-2.1,23.2,9,26.1,24.7    C482.1,116,475.1,130.5,463.5,132.6z"></path>		</g>		<g>			<circle class="st1" cx="114.8" cy="198.3" r="10.4"></circle>		</g>		<g>			<circle class="st1" cx="149.7" cy="210.2" r="10.4"></circle>		</g>		<g>			<circle class="st1" cx="187.7" cy="198.3" r="10.4"></circle>		</g>		<g>			<circle class="st1" cx="501.6" cy="46.8" r="10.4"></circle>		</g>		<g>			<circle class="st1" cx="469.7" cy="28.3" r="10.4"></circle>		</g>		<g>			<circle class="st1" cx="430.1" cy="32.4" r="10.4"></circle>		</g>	</g></g></svg>